<?xml version="1.0" encoding="utf-8"?>
<svg xmlns="http://www.w3.org/2000/svg" xmlns:xlink="http://www.w3.org/1999/xlink" style="margin: auto; background: transparent; display: block; shape-rendering: auto;" width="204px" height="204px" viewBox="0 0 100 100" preserveAspectRatio="xMidYMid">
<g transform="translate(50 50)">
<g>
<animateTransform attributeName="transform" type="rotate" values="0;40" keyTimes="0;1" dur="1.2048192771084336s" repeatCount="indefinite"></animateTransform><path d="M26.324893162176366 -6 L35.324893162176366 -6 L35.324893162176366 6 L26.324893162176366 6 A27 27 0 0 1 24.022763780705223 12.325048492255 L24.022763780705223 12.325048492255 L30.917163768776025 18.110136979433854 L23.203712452537555 27.302670296861592 L16.309312464466753 21.51758180968274 A27 27 0 0 1 10.480116242961811 24.883069817327765 L10.480116242961811 24.883069817327765 L12.042949841964186 33.746339594437636 L0.2252568058176887 35.830117726440804 L-1.3375767931846851 26.96684794933093 A27 27 0 0 1 -7.966294158381545 25.798026230355998 L-7.966294158381545 25.798026230355998 L-12.466294158381544 33.59225486441595 L-22.858599003794808 27.592254864415946 L-18.35859900379481 19.798026230355998 A27 27 0 0 1 -22.685186987520535 14.64179945707593 L-22.685186987520535 14.64179945707593 L-31.142420574593707 17.71998074700695 L-35.24666229450174 6.443669297576051 L-26.789428707428563 3.365488007645031 A27 27 0 0 1 -26.789428707428563 -3.3654880076450246 L-26.789428707428563 -3.3654880076450246 L-35.24666229450174 -6.443669297576044 L-31.142420574593714 -17.719980747006947 L-22.685186987520538 -14.641799457075928 A27 27 0 0 1 -18.358599003794826 -19.798026230355987 L-18.358599003794826 -19.798026230355987 L-22.85859900379483 -27.592254864415935 L-12.466294158381567 -33.59225486441594 L-7.966294158381563 -25.798026230355994 A27 27 0 0 1 -1.3375767931846976 -26.96684794933093 L-1.3375767931846976 -26.96684794933093 L0.22525680581767227 -35.830117726440804 L12.04294984196417 -33.74633959443764 L10.4801162429618 -24.88306981732777 A27 27 0 0 1 16.309312464466743 -21.517581809682742 L16.309312464466743 -21.517581809682742 L23.203712452537545 -27.3026702968616 L30.91716376877602 -18.110136979433864 L24.02276378070522 -12.325048492255009 A27 27 0 0 1 26.324893162176362 -6.000000000000007 M0 -18A18 18 0 1 0 0 18 A18 18 0 1 0 0 -18" fill="#facc15"></path></g></g>
<!-- [ldio] generated by https://loading.io/ --></svg>