<svg width="417" height="36" viewBox="0 0 417 36" fill="none" xmlns="http://www.w3.org/2000/svg">
<path d="M0.664062 23.6328L10.7656 23C10.9844 24.6406 11.4297 25.8906 12.1016 26.75C13.1953 28.1406 14.7578 28.8359 16.7891 28.8359C18.3047 28.8359 19.4688 28.4844 20.2812 27.7812C21.1094 27.0625 21.5234 26.2344 21.5234 25.2969C21.5234 24.4062 21.1328 23.6094 20.3516 22.9062C19.5703 22.2031 17.7578 21.5391 14.9141 20.9141C10.2578 19.8672 6.9375 18.4766 4.95312 16.7422C2.95312 15.0078 1.95312 12.7969 1.95312 10.1094C1.95312 8.34375 2.46094 6.67969 3.47656 5.11719C4.50781 3.53906 6.04688 2.30469 8.09375 1.41406C10.1562 0.507812 12.9766 0.0546875 16.5547 0.0546875C20.9453 0.0546875 24.2891 0.875 26.5859 2.51562C28.8984 4.14062 30.2734 6.73438 30.7109 10.2969L20.7031 10.8828C20.4375 9.33594 19.875 8.21094 19.0156 7.50781C18.1719 6.80469 17 6.45312 15.5 6.45312C14.2656 6.45312 13.3359 6.71875 12.7109 7.25C12.0859 7.76562 11.7734 8.39844 11.7734 9.14844C11.7734 9.69531 12.0312 10.1875 12.5469 10.625C13.0469 11.0781 14.2344 11.5 16.1094 11.8906C20.75 12.8906 24.0703 13.9062 26.0703 14.9375C28.0859 15.9531 29.5469 17.2188 30.4531 18.7344C31.375 20.25 31.8359 21.9453 31.8359 23.8203C31.8359 26.0234 31.2266 28.0547 30.0078 29.9141C28.7891 31.7734 27.0859 33.1875 24.8984 34.1562C22.7109 35.1094 19.9531 35.5859 16.625 35.5859C10.7812 35.5859 6.73438 34.4609 4.48438 32.2109C2.23438 29.9609 0.960938 27.1016 0.664062 23.6328ZM48.0781 0.640625V10.1094H53.3281V17.0703H48.0781V25.9062C48.0781 26.9688 48.1797 27.6719 48.3828 28.0156C48.6953 28.5469 49.2422 28.8125 50.0234 28.8125C50.7266 28.8125 51.7109 28.6094 52.9766 28.2031L53.6797 34.7891C51.3203 35.3047 49.1172 35.5625 47.0703 35.5625C44.6953 35.5625 42.9453 35.2578 41.8203 34.6484C40.6953 34.0391 39.8594 33.1172 39.3125 31.8828C38.7812 30.6328 38.5156 28.6172 38.5156 25.8359V17.0703H35V10.1094H38.5156V5.53906L48.0781 0.640625ZM66.5938 18.1719L57.4766 17.2109C57.8203 15.6172 58.3125 14.3672 58.9531 13.4609C59.6094 12.5391 60.5469 11.7422 61.7656 11.0703C62.6406 10.5859 63.8438 10.2109 65.375 9.94531C66.9062 9.67969 68.5625 9.54688 70.3438 9.54688C73.2031 9.54688 75.5 9.71094 77.2344 10.0391C78.9688 10.3516 80.4141 11.0156 81.5703 12.0312C82.3828 12.7344 83.0234 13.7344 83.4922 15.0312C83.9609 16.3125 84.1953 17.5391 84.1953 18.7109V29.7031C84.1953 30.875 84.2656 31.7969 84.4062 32.4688C84.5625 33.125 84.8906 33.9688 85.3906 35H76.4375C76.0781 34.3594 75.8438 33.875 75.7344 33.5469C75.625 33.2031 75.5156 32.6719 75.4062 31.9531C74.1562 33.1562 72.9141 34.0156 71.6797 34.5312C69.9922 35.2188 68.0312 35.5625 65.7969 35.5625C62.8281 35.5625 60.5703 34.875 59.0234 33.5C57.4922 32.125 56.7266 30.4297 56.7266 28.4141C56.7266 26.5234 57.2812 24.9688 58.3906 23.75C59.5 22.5312 61.5469 21.625 64.5312 21.0312C68.1094 20.3125 70.4297 19.8125 71.4922 19.5312C72.5547 19.2344 73.6797 18.8516 74.8672 18.3828C74.8672 17.2109 74.625 16.3906 74.1406 15.9219C73.6562 15.4531 72.8047 15.2188 71.5859 15.2188C70.0234 15.2188 68.8516 15.4688 68.0703 15.9688C67.4609 16.3594 66.9688 17.0938 66.5938 18.1719ZM74.8672 23.1875C73.5547 23.6562 72.1875 24.0703 70.7656 24.4297C68.8281 24.9453 67.6016 25.4531 67.0859 25.9531C66.5547 26.4688 66.2891 27.0547 66.2891 27.7109C66.2891 28.4609 66.5469 29.0781 67.0625 29.5625C67.5938 30.0312 68.3672 30.2656 69.3828 30.2656C70.4453 30.2656 71.4297 30.0078 72.3359 29.4922C73.2578 28.9766 73.9062 28.3516 74.2812 27.6172C74.6719 26.8672 74.8672 25.8984 74.8672 24.7109V23.1875ZM90.0078 10.1094H98.9375V14.1875C99.7969 12.4219 100.68 11.2109 101.586 10.5547C102.508 9.88281 103.641 9.54688 104.984 9.54688C106.391 9.54688 107.93 9.98438 109.602 10.8594L106.648 17.6562C105.523 17.1875 104.633 16.9531 103.977 16.9531C102.727 16.9531 101.758 17.4688 101.07 18.5C100.086 19.9531 99.5938 22.6719 99.5938 26.6562V35H90.0078V10.1094ZM150.781 20.9609L160.086 23.7734C159.461 26.3828 158.477 28.5625 157.133 30.3125C155.789 32.0625 154.117 33.3828 152.117 34.2734C150.133 35.1641 147.602 35.6094 144.523 35.6094C140.789 35.6094 137.734 35.0703 135.359 33.9922C133 32.8984 130.961 30.9844 129.242 28.25C127.523 25.5156 126.664 22.0156 126.664 17.75C126.664 12.0625 128.172 7.69531 131.188 4.64844C134.219 1.58594 138.5 0.0546875 144.031 0.0546875C148.359 0.0546875 151.758 0.929688 154.227 2.67969C156.711 4.42969 158.555 7.11719 159.758 10.7422L150.383 12.8281C150.055 11.7812 149.711 11.0156 149.352 10.5312C148.758 9.71875 148.031 9.09375 147.172 8.65625C146.312 8.21875 145.352 8 144.289 8C141.883 8 140.039 8.96875 138.758 10.9062C137.789 12.3438 137.305 14.6016 137.305 17.6797C137.305 21.4922 137.883 24.1094 139.039 25.5312C140.195 26.9375 141.82 27.6406 143.914 27.6406C145.945 27.6406 147.477 27.0703 148.508 25.9297C149.555 24.7891 150.312 23.1328 150.781 20.9609ZM163.461 22.625C163.461 18.8281 164.742 15.7031 167.305 13.25C169.867 10.7812 173.328 9.54688 177.688 9.54688C182.672 9.54688 186.438 10.9922 188.984 13.8828C191.031 16.2109 192.055 19.0781 192.055 22.4844C192.055 26.3125 190.781 29.4531 188.234 31.9062C185.703 34.3438 182.195 35.5625 177.711 35.5625C173.711 35.5625 170.477 34.5469 168.008 32.5156C164.977 30 163.461 26.7031 163.461 22.625ZM173.023 22.6016C173.023 24.8203 173.469 26.4609 174.359 27.5234C175.266 28.5859 176.398 29.1172 177.758 29.1172C179.133 29.1172 180.258 28.5938 181.133 27.5469C182.023 26.5 182.469 24.8203 182.469 22.5078C182.469 20.3516 182.023 18.75 181.133 17.7031C180.242 16.6406 179.141 16.1094 177.828 16.1094C176.438 16.1094 175.289 16.6484 174.383 17.7266C173.477 18.7891 173.023 20.4141 173.023 22.6016ZM196.648 10.1094H205.531V14.1641C206.859 12.5078 208.203 11.3281 209.562 10.625C210.922 9.90625 212.578 9.54688 214.531 9.54688C217.172 9.54688 219.234 10.3359 220.719 11.9141C222.219 13.4766 222.969 15.8984 222.969 19.1797V35H213.383V21.3125C213.383 19.75 213.094 18.6484 212.516 18.0078C211.938 17.3516 211.125 17.0234 210.078 17.0234C208.922 17.0234 207.984 17.4609 207.266 18.3359C206.547 19.2109 206.188 20.7812 206.188 23.0469V35H196.648V10.1094ZM254.867 0.640625V35H245.938V31.3203C244.688 32.8828 243.547 33.9375 242.516 34.4844C241.141 35.2031 239.609 35.5625 237.922 35.5625C234.531 35.5625 231.938 34.2734 230.141 31.6953C228.359 29.1172 227.469 25.9844 227.469 22.2969C227.469 18.1719 228.453 15.0156 230.422 12.8281C232.406 10.6406 234.922 9.54688 237.969 9.54688C239.453 9.54688 240.797 9.79688 242 10.2969C243.219 10.7969 244.297 11.5469 245.234 12.5469V0.640625H254.867ZM245.305 22.4844C245.305 20.5312 244.891 19.0781 244.062 18.125C243.234 17.1562 242.188 16.6719 240.922 16.6719C239.812 16.6719 238.883 17.1328 238.133 18.0547C237.383 18.9766 237.008 20.5234 237.008 22.6953C237.008 24.7266 237.391 26.2188 238.156 27.1719C238.938 28.1094 239.898 28.5781 241.039 28.5781C242.258 28.5781 243.273 28.1016 244.086 27.1484C244.898 26.1953 245.305 24.6406 245.305 22.4844ZM259.508 22.625C259.508 18.8281 260.789 15.7031 263.352 13.25C265.914 10.7812 269.375 9.54688 273.734 9.54688C278.719 9.54688 282.484 10.9922 285.031 13.8828C287.078 16.2109 288.102 19.0781 288.102 22.4844C288.102 26.3125 286.828 29.4531 284.281 31.9062C281.75 34.3438 278.242 35.5625 273.758 35.5625C269.758 35.5625 266.523 34.5469 264.055 32.5156C261.023 30 259.508 26.7031 259.508 22.625ZM269.07 22.6016C269.07 24.8203 269.516 26.4609 270.406 27.5234C271.312 28.5859 272.445 29.1172 273.805 29.1172C275.18 29.1172 276.305 28.5938 277.18 27.5469C278.07 26.5 278.516 24.8203 278.516 22.5078C278.516 20.3516 278.07 18.75 277.18 17.7031C276.289 16.6406 275.188 16.1094 273.875 16.1094C272.484 16.1094 271.336 16.6484 270.43 17.7266C269.523 18.7891 269.07 20.4141 269.07 22.6016ZM292.766 10.1094H301.672V13.7422C302.953 12.2266 304.242 11.1484 305.539 10.5078C306.852 9.86719 308.43 9.54688 310.273 9.54688C312.258 9.54688 313.828 9.89844 314.984 10.6016C316.141 11.3047 317.086 12.3516 317.82 13.7422C319.32 12.1172 320.688 11.0156 321.922 10.4375C323.156 9.84375 324.68 9.54688 326.492 9.54688C329.164 9.54688 331.25 10.3438 332.75 11.9375C334.25 13.5156 335 15.9922 335 19.3672V35H325.438V20.8203C325.438 19.6953 325.219 18.8594 324.781 18.3125C324.141 17.4531 323.344 17.0234 322.391 17.0234C321.266 17.0234 320.359 17.4297 319.672 18.2422C318.984 19.0547 318.641 20.3594 318.641 22.1562V35H309.078V21.2891C309.078 20.1953 309.016 19.4531 308.891 19.0625C308.688 18.4375 308.336 17.9375 307.836 17.5625C307.336 17.1719 306.75 16.9766 306.078 16.9766C304.984 16.9766 304.086 17.3906 303.383 18.2188C302.68 19.0469 302.328 20.4062 302.328 22.2969V35H292.766V10.1094ZM341.047 0.640625H350.586V7.13281H341.047V0.640625ZM341.047 10.1094H350.586V35H341.047V10.1094ZM356.68 10.1094H365.562V14.1641C366.891 12.5078 368.234 11.3281 369.594 10.625C370.953 9.90625 372.609 9.54688 374.562 9.54688C377.203 9.54688 379.266 10.3359 380.75 11.9141C382.25 13.4766 383 15.8984 383 19.1797V35H373.414V21.3125C373.414 19.75 373.125 18.6484 372.547 18.0078C371.969 17.3516 371.156 17.0234 370.109 17.0234C368.953 17.0234 368.016 17.4609 367.297 18.3359C366.578 19.2109 366.219 20.7812 366.219 23.0469V35H356.68V10.1094ZM416.328 24.9219H397.203C397.375 26.4531 397.789 27.5938 398.445 28.3438C399.367 29.4219 400.57 29.9609 402.055 29.9609C402.992 29.9609 403.883 29.7266 404.727 29.2578C405.242 28.9609 405.797 28.4375 406.391 27.6875L415.789 28.5547C414.352 31.0547 412.617 32.8516 410.586 33.9453C408.555 35.0234 405.641 35.5625 401.844 35.5625C398.547 35.5625 395.953 35.1016 394.062 34.1797C392.172 33.2422 390.602 31.7656 389.352 29.75C388.117 27.7188 387.5 25.3359 387.5 22.6016C387.5 18.7109 388.742 15.5625 391.227 13.1562C393.727 10.75 397.172 9.54688 401.562 9.54688C405.125 9.54688 407.938 10.0859 410 11.1641C412.062 12.2422 413.633 13.8047 414.711 15.8516C415.789 17.8984 416.328 20.5625 416.328 23.8438V24.9219ZM406.625 20.3516C406.438 18.5078 405.938 17.1875 405.125 16.3906C404.328 15.5938 403.273 15.1953 401.961 15.1953C400.445 15.1953 399.234 15.7969 398.328 17C397.75 17.75 397.383 18.8672 397.227 20.3516H406.625Z" fill="#FFC700"/>
</svg>
